HIERARCHY
ROOT Hips
{
	OFFSET -0.001795 -0.223333 0.028219
	CHANNELS 6 Xposition Yposition Zposition Zrotation Yrotation Xrotation 
	JOINT LeftUpLeg
	{
		OFFSET 0.069520 -0.091406 -0.006815
		CHANNELS 3 Zrotation Yrotation Xrotation
		JOINT LeftLeg
		{
			OFFSET 0.034277 -0.375199 -0.004496
			CHANNELS 3 Zrotation Yrotation Xrotation
			JOINT LeftFoot
			{
				OFFSET -0.013596 -0.397961 -0.043693
				CHANNELS 3 Zrotation Yrotation Xrotation
				JOINT LeftToe
				{
					OFFSET 0.026358 -0.055791 0.119288
					CHANNELS 3 Zrotation Yrotation Xrotation
					End Site
					{
						OFFSET 0.000000 0.000000 0.000000
					}
				}
			}
		}
	}
	JOINT RightUpLeg
	{
		OFFSET -0.067670 -0.090522 -0.004320
		CHANNELS 3 Zrotation Yrotation Xrotation
		JOINT RightLeg
		{
			OFFSET -0.038290 -0.382569 -0.008850
			CHANNELS 3 Zrotation Yrotation Xrotation
			JOINT RightFoot
			{
				OFFSET 0.015774 -0.398415 -0.042312
				CHANNELS 3 Zrotation Yrotation Xrotation
				JOINT RightToe
				{
					OFFSET -0.025372 -0.048144 0.123348
					CHANNELS 3 Zrotation Yrotation Xrotation
					End Site
					{
						OFFSET 0.000000 0.000000 0.000000
					}
				}
			}
		}
	}
	JOINT Spine
	{
		OFFSET -0.002533 0.108963 -0.026696
		CHANNELS 3 Zrotation Yrotation Xrotation
		JOINT Spine1
		{
			OFFSET 0.005487 0.135180 0.001092
			CHANNELS 3 Zrotation Yrotation Xrotation
			JOINT Spine2
			{
				OFFSET 0.001457 0.052922 0.025425
				CHANNELS 3 Zrotation Yrotation Xrotation
				JOINT Neck
				{
					OFFSET -0.002778 0.213870 -0.042857
					CHANNELS 3 Zrotation Yrotation Xrotation
					JOINT Head
					{
						OFFSET 0.005152 0.064970 0.051349
						CHANNELS 3 Zrotation Yrotation Xrotation
						End Site
						{
							OFFSET 0.000000 0.000000 0.000000
						}
					}
				}
				JOINT LeftShoulder
				{
					OFFSET 0.078845 0.121749 -0.034090
					CHANNELS 3 Zrotation Yrotation Xrotation
					JOINT LeftArm
					{
						OFFSET 0.090977 0.030469 -0.008868
						CHANNELS 3 Zrotation Yrotation Xrotation
						JOINT LeftForeArm
						{
							OFFSET 0.259612 -0.012772 -0.027456
							CHANNELS 3 Zrotation Yrotation Xrotation
							JOINT LeftHand
							{
								OFFSET 0.249234 0.008986 -0.001171
								CHANNELS 3 Zrotation Yrotation Xrotation
								End Site
								{
									OFFSET 0.000000 0.000000 0.000000
								}
							}
						}
					}
				}
				JOINT RightShoulder
				{
					OFFSET -0.081759 0.118833 -0.038615
					CHANNELS 3 Zrotation Yrotation Xrotation
					JOINT RightArm
					{
						OFFSET -0.096012 0.032551 -0.009143
						CHANNELS 3 Zrotation Yrotation Xrotation
						JOINT RightForeArm
						{
							OFFSET -0.253742 -0.013329 -0.021401
							CHANNELS 3 Zrotation Yrotation Xrotation
							JOINT RightHand
							{
								OFFSET -0.255298 0.007772 -0.005559
								CHANNELS 3 Zrotation Yrotation Xrotation
								End Site
								{
									OFFSET 0.000000 0.000000 0.000000
								}
							}
						}
					}
				}
			}
		}
	}
}
MOTION
Frames: 9
Frame Time: 0.050000
0.000000 0.942233 0.000000 -0.145810 -4.273944 6.369004 5.777494 -0.317193 -5.039840 0.810248 -0.031483 -1.529667 0.849701 4.217991 7.393442 0.000000 0.000000 0.000000 -3.629325 0.482162 -4.579881 -2.968987 0.206735 -1.183896 -0.197549 -4.265980 7.656563 0.000000 0.000000 0.000000 4.885676 0.293576 -5.015770 -2.774736 1.249266 -4.508742 -3.547073 5.932578 5.000397 6.400336 -2.639262 -13.879837 0.000000 0.000000 0.000000 -14.905879 0.196317 -2.311785 -56.150412 -6.760429 -3.526958 -7.286785 -16.374862 1.531901 0.000000 0.000000 0.000000 12.531229 -6.253725 -3.470380 64.761901 4.969069 -3.194868 8.390189 20.200021 2.178052 0.000000 0.000000 0.000000 
0.000203 0.941230 0.000544 -0.154117 -4.984614 7.033711 5.623450 -0.298867 -4.451081 1.009066 0.012782 -3.050358 0.944400 4.306260 7.318054 0.000000 0.000000 0.000000 -3.602868 0.562490 -5.596332 -3.613205 0.276605 -0.912357 0.364562 -3.410937 8.210273 0.000000 0.000000 0.000000 5.687420 0.353785 -5.561341 -3.339790 1.474305 -4.769494 -4.389792 6.643525 4.623203 6.667390 -2.525064 -15.274475 0.000000 0.000000 0.000000 -15.572709 0.833848 -2.832956 -54.983904 -6.774218 -3.371345 -8.160178 -16.562352 1.652637 0.000000 0.000000 0.000000 12.843983 -7.379381 -3.988349 65.604509 4.480038 -3.404484 8.493745 19.797781 2.161729 0.000000 0.000000 0.000000 
0.000334 0.941026 0.000755 0.192069 -4.795946 6.880107 4.993081 -0.337537 -4.991074 1.497743 -0.108532 -1.387952 0.657613 3.396094 5.963597 0.000000 0.000000 0.000000 -3.877579 0.580189 -5.881074 -3.741204 0.307506 -0.666458 -0.431240 -4.984013 8.077477 0.000000 0.000000 0.000000 5.400796 0.330137 -5.357589 -3.015126 1.319986 -6.011057 -4.664769 6.364456 5.383927 6.414368 -2.523919 -14.518754 0.000000 0.000000 0.000000 -15.556862 0.629095 -2.672014 -54.964097 -5.981853 -3.818226 -7.932998 -16.301820 1.608595 0.000000 0.000000 0.000000 13.989740 -6.575332 -3.729831 64.227274 4.218774 -3.674882 8.418178 20.059864 2.183564 0.000000 0.000000 0.000000 
0.000359 0.940770 0.000937 0.270398 -4.706307 7.428767 5.336226 -0.354414 -5.417381 0.889256 -0.033831 -1.676936 0.414474 3.007322 6.174404 0.000000 0.000000 0.000000 -4.008686 0.627548 -6.507814 -3.809173 0.317845 -0.607766 -0.607278 -5.521156 8.544409 0.000000 0.000000 0.000000 5.359078 0.341439 -5.594979 -3.270482 1.431702 -5.608996 -4.558389 5.758641 4.248796 6.301000 -2.636141 -13.520119 0.000000 0.000000 0.000000 -15.320694 1.589220 -3.022886 -55.538254 -6.294333 -3.616141 -6.958283 -16.113843 1.461284 0.000000 0.000000 0.000000 12.775807 -6.964878 -3.886290 64.758494 3.640292 -3.869706 9.947677 20.618797 2.476738 0.000000 0.000000 0.000000 
0.000314 0.941259 0.000981 0.413968 -4.467568 7.465686 4.892435 -0.391701 -5.888726 1.407307 -0.104866 -1.237351 0.315686 2.882064 6.308459 0.000000 0.000000 0.000000 -4.076586 0.640460 -6.725362 -4.029161 0.349373 -0.477097 -0.764535 -5.790947 8.472762 0.000000 0.000000 0.000000 5.218583 0.320028 -5.420597 -2.976720 1.312806 -5.658131 -4.909790 5.829621 4.119169 6.330316 -2.608869 -13.635752 0.000000 0.000000 0.000000 -15.326294 1.515913 -3.043839 -55.352412 -6.461390 -3.513094 -7.303735 -15.985083 1.488743 0.000000 0.000000 0.000000 12.722309 -7.401251 -4.054661 64.723329 3.507435 -3.896973 10.548561 20.930387 2.634871 0.000000 0.000000 0.000000 
0.000288 0.941536 0.001002 0.454355 -4.551439 7.763093 5.045821 -0.402571 -6.191707 1.067089 -0.075432 -1.106729 0.409702 3.009081 6.178255 0.000000 0.000000 0.000000 -4.096950 0.661841 -6.992626 -4.283578 0.351240 -0.743293 -0.541765 -5.535811 8.963050 0.000000 0.000000 0.000000 5.163621 0.317278 -5.445126 -2.906376 1.276128 -6.059278 -5.000641 6.019820 4.097508 6.604384 -2.815592 -13.343055 0.000000 0.000000 0.000000 -15.267620 1.849815 -3.226052 -55.391488 -6.316054 -3.578758 -7.242218 -15.762908 1.453794 0.000000 0.000000 0.000000 12.089957 -7.652243 -4.079927 65.335759 3.163020 -4.060264 10.734316 20.853391 2.660972 0.000000 0.000000 0.000000 
0.000254 0.941674 0.000954 0.516125 -4.530557 7.865833 4.965430 -0.420332 -6.492292 1.155121 -0.087854 -1.029067 0.433019 3.237287 6.771089 0.000000 0.000000 0.000000 -4.030076 0.679437 -7.233167 -4.454829 0.372862 -0.666009 -0.358713 -5.114660 8.836129 0.000000 0.000000 0.000000 5.118379 0.304039 -5.336880 -3.025609 1.327058 -5.927974 -5.011215 5.797835 3.922710 6.620717 -2.776923 -13.726421 0.000000 0.000000 0.000000 -15.181619 2.175857 -3.331107 -55.361099 -6.052780 -3.686404 -7.422944 -15.816424 1.487915 0.000000 0.000000 0.000000 11.736288 -7.715163 -4.096757 65.620155 2.894345 -4.209371 10.933313 21.047227 2.712144 0.000000 0.000000 0.000000 
0.000248 0.941752 0.000898 0.529687 -4.440850 8.081042 4.908575 -0.441273 -6.834574 1.082125 -0.087972 -0.838350 0.320616 2.936732 6.456706 0.000000 0.000000 0.000000 -4.008763 0.696571 -7.459281 -4.591985 0.376002 -0.784456 -0.241644 -4.788966 8.641010 0.000000 0.000000 0.000000 5.083513 0.306360 -5.415813 -2.927373 1.286739 -5.972397 -5.313607 6.003994 3.841986 6.485551 -2.742803 -13.224170 0.000000 0.000000 0.000000 -14.485217 2.215922 -3.282652 -55.553425 -6.058401 -3.713302 -7.849620 -15.667593 1.520495 0.000000 0.000000 0.000000 11.322937 -7.994759 -4.140241 65.970044 2.603698 -4.324517 11.262447 20.902176 2.759794 0.000000 0.000000 0.000000 
0.000208 0.941962 0.000813 0.653717 -4.561416 8.165485 4.731038 -0.456616 -7.015884 1.042702 -0.082822 -0.865804 0.438113 3.183355 6.575787 0.000000 0.000000 0.000000 -4.151207 0.705773 -7.589531 -4.666091 0.378440 -0.823651 -0.016592 -4.280354 8.495993 0.000000 0.000000 0.000000 5.037757 0.309633 -5.466535 -3.061911 1.338735 -6.033427 -5.331545 6.151900 3.947402 6.431404 -2.727769 -13.067887 0.000000 0.000000 0.000000 -14.021301 2.289531 -3.242426 -55.720148 -6.057259 -3.753651 -7.960047 -15.248008 1.492227 0.000000 0.000000 0.000000 11.008367 -8.120233 -4.150272 65.977259 2.382707 -4.435124 11.448972 20.649867 2.756622 0.000000 0.000000 0.000000 
